<svg height="512pt" viewBox="-42 0 512 512" width="512pt" xmlns="http://www.w3.org/2000/svg"><path d="m393.335938 123.140625v376.742187c0 6.691407-5.425782 12.117188-12.121094 12.117188h-334.664063c-6.691406 0-12.117187-5.425781-12.117187-12.117188v-487.765624c0-6.691407 5.425781-12.117188 12.117187-12.117188h223.652344c2.652344 0 5.199219 1.054688 7.074219 2.929688l113.128906 113.140624c1.875 1.875 2.929688 4.417969 2.929688 7.070313zm0 0" fill="#006be0"/><path d="m393.335938 123.140625v376.75c0 6.679687-5.421876 12.109375-12.121094 12.109375h-32.648438c6.6875 0 12.117188-5.429688 12.117188-12.109375v-380.890625l-.097656-.101562-86.140626-86.148438-32.75-32.75h28.507813c1.441406 0 2.851563.308594 4.140625.898438 1.082031.492187 2.070312 1.171874 2.929688 2.03125l113.132812 113.140624c.859375.851563 1.539062 1.851563 2.027344 2.929688.589844 1.289062.902344 2.699219.902344 4.140625zm0 0" fill="#003fcc"/><path d="m392.433594 119-31.847656-.101562-73.851563-.21875c-6.660156-.019532-12.058594-5.417969-12.078125-12.078126l-.210938-73.851562-.101562-31.851562c1.082031.492187 2.070312 1.171874 2.929688 2.03125l113.132812 113.140624c.859375.851563 1.539062 1.851563 2.027344 2.929688zm0 0" fill="#64bdff"/><path d="m415.648438 335.121094h-403.53125c-6.691407 0-12.117188-5.425782-12.117188-12.117188v-134.007812c0-6.691406 5.425781-12.117188 12.117188-12.117188h403.53125c6.695312 0 12.117187 5.425782 12.117187 12.117188v134.003906c0 6.695312-5.421875 12.121094-12.117187 12.121094zm0 0" fill="#64bdff"/><path d="m427.769531 188.996094v134.007812c0 6.695313-5.429687 12.113282-12.125 12.113282h-29.875c6.695313 0 12.125-5.417969 12.125-12.113282v-134.007812c0-6.695313-5.429687-12.113282-12.125-12.113282h29.875c6.695313 0 12.125 5.417969 12.125 12.113282zm0 0" fill="#43a3f9"/><g fill="#003fcc"><path d="m344.714844 381.164062h-47.386719c-4.265625 0-7.726563-3.457031-7.726563-7.722656 0-4.269531 3.460938-7.726562 7.726563-7.726562h47.386719c4.269531 0 7.726562 3.457031 7.726562 7.726562 0 4.265625-3.457031 7.722656-7.726562 7.722656zm0 0"/><path d="m344.714844 405.890625h-23.691406c-4.269532 0-7.726563-3.457031-7.726563-7.726563 0-4.265624 3.457031-7.726562 7.726563-7.726562h23.691406c4.269531 0 7.726562 3.460938 7.726562 7.726562 0 4.269532-3.457031 7.726563-7.726562 7.726563zm0 0"/><path d="m344.714844 483.515625h-259.632813c-4.265625 0-7.726562-3.457031-7.726562-7.726563 0-4.265624 3.460937-7.722656 7.726562-7.722656h259.636719c4.265625 0 7.722656 3.457032 7.722656 7.722656 0 4.269532-3.457031 7.726563-7.726562 7.726563zm0 0"/><path d="m190.082031 205.875h-23.777343c-7.929688 0-14.378907 6.453125-14.378907 14.382812v77.820313c0 4.265625 3.457031 7.726563 7.722657 7.726563 4.269531 0 7.726562-3.460938 7.726562-7.726563v-30.390625h22.707031c13.609375 0 24.683594-11.074219 24.683594-24.683594v-12.445312c0-13.609375-11.074219-24.683594-24.683594-24.683594zm9.230469 37.128906c0 5.089844-4.140625 9.230469-9.230469 9.230469h-22.707031v-30.90625h22.707031c5.089844 0 9.230469 4.140625 9.230469 9.230469zm0 0"/><path d="m246.078125 240.148438h22.042969c4.265625 0 7.726562-3.460938 7.726562-7.726563 0-4.269531-3.460937-7.726563-7.726562-7.726563h-22.042969c-12.4375 0-22.554687 10.117188-22.554687 22.554688s10.117187 22.554688 22.554687 22.554688h4.007813c5.683593 0 10.308593 4.625 10.308593 10.308593 0 5.683594-4.625 10.308594-10.308593 10.308594h-18.839844c-4.265625 0-7.722656 3.460937-7.722656 7.726563 0 4.265624 3.457031 7.726562 7.722656 7.726562h18.839844c14.203124 0 25.761718-11.554688 25.761718-25.761719s-11.558594-25.761719-25.761718-25.761719h-4.007813c-3.917969 0-7.105469-3.1875-7.105469-7.105468 0-3.914063 3.1875-7.097656 7.105469-7.097656zm0 0"/></g><path d="m360.683594 250.980469h21.632812c4.269532 0 7.726563-3.460938 7.726563-7.726563 0-4.269531-3.457031-7.726562-7.726563-7.726562h-21.632812c-4.265625 0-7.726563 3.457031-7.726563 7.726562 0 4.265625 3.460938 7.726563 7.726563 7.726563zm0 0" fill="#43a3f9"/><path d="m382.316406 261.019531h-21.632812c-4.265625 0-7.726563 3.460938-7.726563 7.726563 0 4.269531 3.460938 7.726562 7.726563 7.726562h21.632812c4.269532 0 7.726563-3.457031 7.726563-7.726562 0-4.265625-3.457031-7.726563-7.726563-7.726563zm0 0" fill="#43a3f9"/><path d="m67.082031 235.527344h-21.632812c-4.265625 0-7.726563 3.457031-7.726563 7.726562 0 4.265625 3.460938 7.722656 7.726563 7.722656h21.632812c4.269531 0 7.726563-3.457031 7.726563-7.722656 0-4.269531-3.457032-7.726562-7.726563-7.726562zm0 0" fill="#43a3f9"/><path d="m67.082031 261.019531h-21.632812c-4.265625 0-7.726563 3.460938-7.726563 7.726563 0 4.269531 3.460938 7.726562 7.726563 7.726562h21.632812c4.269531 0 7.726563-3.457031 7.726563-7.726562 0-4.265625-3.457032-7.726563-7.726563-7.726563zm0 0" fill="#43a3f9"/><path d="m119.964844 100.882812-20.242188-20.242187 44.011719-44.011719c5.589844-5.589844 14.652344-5.589844 20.242187 0 5.589844 5.585938 5.589844 14.648438 0 20.238282zm0 0" fill="#e3f4ff"/><path d="m116.289062 116.015625c-8.753906 8.753906-36.53125 22.335937-45.285156 13.585937-8.753906-8.753906 4.832032-36.53125 13.585938-45.285156s22.945312-8.753906 31.699218 0c8.75 8.753906 8.75 22.945313 0 31.699219zm0 0" fill="#fdb659"/><path d="m239.636719 398.164062h-149.890625c-6.824219 0-12.359375-5.535156-12.359375-12.363281s5.535156-12.363281 12.359375-12.363281h149.890625c6.828125 0 12.363281 5.535156 12.363281 12.363281s-5.535156 12.363281-12.363281 12.363281zm0 0" fill="#e3f4ff"/></svg>